<svg id="Layer_1" data-name="Layer 1" xmlns="http://www.w3.org/2000/svg" viewBox="0 0 103.66 89.85"><defs><style>.cls-1{fill:#5a4099;}</style></defs><title>bbbs_logo</title><path class="cls-1" d="M94.72,57.81c.33,14.9-31.2,23.9-49.61,32,0,0,37.14-8.38,50.34-20,8.39-7.4,7.49-26.67-14.23-23.66-.18,0-.74.77-.92.8,0,0,14.22,1.08,14.43,10.85"/><path class="cls-1" d="M23,29.9c-1.57-.43-3.47-1-5.48-1.44L17,25.84S58,45.55,102.11,1.63C103,.74,103.66,0,103.66,0s-.49,2.51-.44,2.42a20.6,20.6,0,0,0-4.15,4.41c-3.62,5-7.21,14.51-1.28,32.5l-1.91,1.36s-1.4-12.27-7.72-8.54c-3.44,2-5.36,13.92-5.36,13.92L80,47.1S89.61,20,73.58,24.38C59.3,28.28,52.52,40.08,47.89,89c0,.4-2.78.85-2.78.85s4.08-26.63-8-26C27.27,64.29,10,89.12,10,89.12H6.12S52.76,38,23,29.9"/><path class="cls-1" d="M46.83,27.52c3.61,0,7.43-3.39,8.54-7.57s-.93-7.57-4.55-7.57-7.43,3.39-8.53,7.57.93,7.57,4.54,7.57"/><path class="cls-1" d="M84.35,13.31a6.85,6.85,0,0,0,4.2-7.14,4.16,4.16,0,0,0-5.84-3.34A6.84,6.84,0,0,0,78.51,10a4.15,4.15,0,0,0,5.84,3.33"/><path class="cls-1" d="M2.21,85a2.14,2.14,0,1,1,0,4.28A2.14,2.14,0,1,1,2.2,85Zm0,.43a1.71,1.71,0,0,0,0,3.41A1.63,1.63,0,0,0,3.84,87.1,1.65,1.65,0,0,0,2.2,85.4Zm-.33,2.81h-.5V86.09A4,4,0,0,1,2.19,86a1.23,1.23,0,0,1,.74.17.59.59,0,0,1,.21.46.55.55,0,0,1-.44.51v0c.21.07.33.23.39.52a1.45,1.45,0,0,0,.16.52H2.71a1.81,1.81,0,0,1-.17-.51c0-.23-.17-.34-.44-.34H1.86Zm0-1.2h.23c.27,0,.5-.09.5-.31s-.14-.33-.46-.33a1.22,1.22,0,0,0-.27,0Z"/></svg>