<svg xmlns="http://www.w3.org/2000/svg" 
  xmlns:xlink="http://www.w3.org/1999/xlink" viewBox="0 0 233.03 152.01">
  <defs>
    <style>.cls-1,.cls-51{fill:none;}.cls-2{isolation:isolate;}.cls-3{fill:#231f20;}.cls-4{clip-path:url(#clip-path);}.cls-5{fill:url(#linear-gradient);}.cls-6{clip-path:url(#clip-path-2);}.cls-7{fill:url(#linear-gradient-2);}.cls-8{clip-path:url(#clip-path-3);}.cls-9{fill:url(#linear-gradient-3);}.cls-10{clip-path:url(#clip-path-4);}.cls-11{fill:url(#linear-gradient-4);}.cls-12{mix-blend-mode:multiply;}.cls-13{clip-path:url(#clip-path-5);}.cls-14{clip-path:url(#clip-path-6);}.cls-15{fill:url(#linear-gradient-5);}.cls-16{clip-path:url(#clip-path-7);}.cls-17{clip-path:url(#clip-path-8);}.cls-18{fill:url(#linear-gradient-6);}.cls-19{mix-blend-mode:screen;}.cls-20{clip-path:url(#clip-path-9);}.cls-21{clip-path:url(#clip-path-10);}.cls-22{fill:url(#linear-gradient-7);}.cls-23{clip-path:url(#clip-path-11);}.cls-24{clip-path:url(#clip-path-12);}.cls-25{fill:url(#linear-gradient-8);}.cls-26{clip-path:url(#clip-path-13);}.cls-27{clip-path:url(#clip-path-14);}.cls-28{fill:url(#linear-gradient-9);}.cls-29{clip-path:url(#clip-path-15);}.cls-30{fill:url(#linear-gradient-10);}.cls-31{clip-path:url(#clip-path-16);}.cls-32{clip-path:url(#clip-path-17);}.cls-33{fill:url(#linear-gradient-11);}.cls-34{clip-path:url(#clip-path-18);}.cls-35{clip-path:url(#clip-path-19);}.cls-36{fill:url(#linear-gradient-12);}.cls-37{clip-path:url(#clip-path-20);}.cls-38{fill:url(#linear-gradient-13);}.cls-39{clip-path:url(#clip-path-21);}.cls-40{clip-path:url(#clip-path-22);}.cls-41{fill:url(#linear-gradient-14);}.cls-42{clip-path:url(#clip-path-23);}.cls-43{clip-path:url(#clip-path-24);}.cls-44{fill:url(#linear-gradient-15);}.cls-45{clip-path:url(#clip-path-25);}.cls-46{fill:url(#linear-gradient-16);}.cls-47{clip-path:url(#clip-path-26);}.cls-48{clip-path:url(#clip-path-27);}.cls-49{fill:url(#linear-gradient-17);}.cls-50{fill:#5a4199;}.cls-51{stroke:#fff;stroke-miterlimit:10;stroke-width:1.29px;}.cls-52{fill:#f9eeb9;}.cls-53{fill:#ed1c24;}</style>
    <clipPath id="clip-path">
      <path class="cls-1" d="M65.91,76.76l-1.09.46V92.58l1.09.46c17.13,7.34,44.33,7.62,54.12,2.72a59,59,0,0,1,7.71-3.16,34.27,34.27,0,0,1,20.61-.3,50.39,50.39,0,0,0,14.38,2.1,9.52,9.52,0,0,0,9.52-9.48h0v0h0a9.52,9.52,0,0,0-9.52-9.48,50.39,50.39,0,0,0-14.38,2.1,34.27,34.27,0,0,1-20.61-.3A59,59,0,0,1,120,74c-4.29-2.15-11.93-3.3-20.59-3.3-11.11,0-23.9,1.89-33.53,6"/>
    </clipPath>
    <linearGradient id="linear-gradient" x1="-442.56" y1="329.74" x2="-441.79" y2="329.74" gradientTransform="matrix(-96.97, 0, 0, 96.97, -42776.33, -31889.99)" gradientUnits="userSpaceOnUse">
      <stop offset="0" stop-color="#fff"/>
      <stop offset="1" stop-color="#d6d4d4"/>
    </linearGradient>
    <clipPath id="clip-path-2">
      <path class="cls-1" d="M142.31,78.72V91.08a33.79,33.79,0,0,1,4.54.82v-14a33.79,33.79,0,0,1-4.54.82"/>
    </clipPath>
    <linearGradient id="linear-gradient-2" x1="-429.4" y1="308.05" x2="-428.63" y2="308.05" gradientTransform="matrix(0, -17.07, -17.07, 0, 5401.94, -7234.36)" gradientUnits="userSpaceOnUse">
      <stop offset="0" stop-color="#b12026"/>
      <stop offset="1" stop-color="#e92327"/>
    </linearGradient>
    <clipPath id="clip-path-3">
      <path class="cls-1" d="M133.56,91.23a32.8,32.8,0,0,1,4.53-.36V78.93a34.43,34.43,0,0,1-4.53-.36Z"/>
    </clipPath>
    <linearGradient id="linear-gradient-3" x1="-429.43" y1="307.87" x2="-428.66" y2="307.87" gradientTransform="matrix(0, -17.07, -17.07, 0, 5390.08, -7234.8)" xlink:href="#linear-gradient-2"/>
    <clipPath id="clip-path-4">
      <path class="cls-1" d="M53.48,71.09A28.89,28.89,0,1,0,82.36,42.21,28.88,28.88,0,0,0,53.48,71.09"/>
    </clipPath>
    <linearGradient id="linear-gradient-4" x1="-441.1" y1="322.85" x2="-440.33" y2="322.85" gradientTransform="matrix(0, -62.41, -62.41, 0, 20232.38, -27440.41)" gradientUnits="userSpaceOnUse">
      <stop offset="0" stop-color="#010101"/>
      <stop offset="1" stop-color="#333"/>
    </linearGradient>
    <clipPath id="clip-path-5">
      <rect class="cls-1" x="56.54" y="50.91" width="54.7" height="49.06"/>
    </clipPath>
    <clipPath id="clip-path-6">
      <path class="cls-1" d="M78.87,94.8A28.59,28.59,0,0,0,103,50.91,28.89,28.89,0,1,1,56.54,84.06,28.53,28.53,0,0,0,78.87,94.8"/>
    </clipPath>
    <linearGradient id="linear-gradient-5" x1="-445.31" y1="312.27" x2="-444.54" y2="312.27" gradientTransform="matrix(0, -22.31, -22.31, 0, 7050.92, -9834.74)" gradientUnits="userSpaceOnUse">
      <stop offset="0" stop-color="#010101"/>
      <stop offset="1" stop-color="#fff"/>
    </linearGradient>
    <clipPath id="clip-path-7">
      <rect class="cls-1" x="53.48" y="45.41" width="57.77" height="54.56"/>
    </clipPath>
    <clipPath id="clip-path-8">
      <path class="cls-1" d="M54.22,64.56c0,.24,0,.48,0,.72A25.46,25.46,0,1,0,95.6,45.41,28.87,28.87,0,1,1,54.22,64.56"/>
    </clipPath>
    <linearGradient id="linear-gradient-6" x1="-441.45" y1="321.87" x2="-440.68" y2="321.87" gradientTransform="matrix(0, -53.36, -53.36, 0, 17256.1, -23454.36)" xlink:href="#linear-gradient-5"/>
    <clipPath id="clip-path-9">
      <rect class="cls-1" x="58.02" y="44.4" width="31.55" height="28.9"/>
    </clipPath>
    <clipPath id="clip-path-10">
      <path class="cls-1" d="M66.36,49.31c-7.68,6-10.58,15.12-6.46,20.39s13.66,4.68,21.34-1.31S91.82,53.27,87.71,48,74,43.32,66.36,49.31"/>
    </clipPath>
    <linearGradient id="linear-gradient-7" x1="-434.08" y1="338.81" x2="-433.31" y2="338.81" gradientTransform="matrix(0, 36.88, 36.88, 0, -12421.92, 16041.3)" gradientUnits="userSpaceOnUse">
      <stop offset="0" stop-color="#fff"/>
      <stop offset="0.19" stop-color="#bfbfbf"/>
      <stop offset="0.41" stop-color="#7c7c7c"/>
      <stop offset="0.61" stop-color="#474747"/>
      <stop offset="0.78" stop-color="#212121"/>
      <stop offset="0.91" stop-color="#0a0a0a"/>
      <stop offset="1" stop-color="#010101"/>
    </linearGradient>
    <clipPath id="clip-path-11">
      <rect class="cls-1" x="64.53" y="56.52" width="36.19" height="32.94"/>
    </clipPath>
    <clipPath id="clip-path-12">
      <path class="cls-1" d="M93.52,56.52a17.63,17.63,0,0,1-29,18.95,18.36,18.36,0,1,0,29-18.95"/>
    </clipPath>
    <linearGradient id="linear-gradient-8" x1="-443.79" y1="316.02" x2="-443.03" y2="316.02" gradientTransform="matrix(0, -28.89, -28.89, 0, 9213.25, -12722.89)" xlink:href="#linear-gradient-5"/>
    <clipPath id="clip-path-13">
      <rect class="cls-1" x="74.67" y="53.09" width="7.84" height="7.84"/>
    </clipPath>
    <clipPath id="clip-path-14">
      <path class="cls-1" d="M82.4,56.05a3.92,3.92,0,1,1-4.76-2.85,3.93,3.93,0,0,1,4.76,2.85"/>
    </clipPath>
    <linearGradient id="linear-gradient-9" x1="-423.8" y1="362.49" x2="-423.03" y2="362.49" gradientTransform="matrix(0, 10.93, 10.93, 0, -3882.24, 4681.35)" xlink:href="#linear-gradient-7"/>
    <clipPath id="clip-path-15">
      <path class="cls-1" d="M77.8,53.84a3.58,3.58,0,1,0,.88-.11,3.32,3.32,0,0,0-.88.11"/>
    </clipPath>
    <linearGradient id="linear-gradient-10" x1="-437.28" y1="332.42" x2="-436.51" y2="332.42" gradientTransform="matrix(-0.01, 101.25, 101.25, 0.01, -33583.35, 44390.61)" xlink:href="#linear-gradient-4"/>
    <clipPath id="clip-path-16">
      <rect class="cls-1" x="75.08" y="53.73" width="7.19" height="7.19"/>
    </clipPath>
    <clipPath id="clip-path-17">
      <path class="cls-1" d="M82.16,56.45a3.59,3.59,0,1,1-4.36-2.61,3.6,3.6,0,0,1,4.36,2.61"/>
    </clipPath>
    <linearGradient id="linear-gradient-11" x1="-421.37" y1="368.22" x2="-420.6" y2="368.22" gradientTransform="matrix(0, 9.34, 9.34, 0, -3360.69, 3990.11)" gradientUnits="userSpaceOnUse">
      <stop offset="0" stop-color="#010101"/>
      <stop offset="0.09" stop-color="#0a0a0a"/>
      <stop offset="0.22" stop-color="#212121"/>
      <stop offset="0.39" stop-color="#474747"/>
      <stop offset="0.59" stop-color="#7c7c7c"/>
      <stop offset="0.81" stop-color="#bfbfbf"/>
      <stop offset="1" stop-color="#fff"/>
    </linearGradient>
    <clipPath id="clip-path-18">
      <rect class="cls-1" x="63.37" y="63.25" width="7.84" height="7.84"/>
    </clipPath>
    <clipPath id="clip-path-19">
      <path class="cls-1" d="M71.09,66.22a3.92,3.92,0,1,1-4.76-2.85,3.91,3.91,0,0,1,4.76,2.85"/>
    </clipPath>
    <linearGradient id="linear-gradient-12" x1="-423.31" y1="363.94" x2="-422.54" y2="363.94" gradientTransform="matrix(0, 10.61, 10.61, 0, -3795.95, 4553.53)" xlink:href="#linear-gradient-7"/>
    <clipPath id="clip-path-20">
      <path class="cls-1" d="M66.49,64a3.58,3.58,0,1,0,.88-.11,3.85,3.85,0,0,0-.88.11"/>
    </clipPath>
    <linearGradient id="linear-gradient-13" x1="-437.28" y1="332.47" x2="-436.51" y2="332.47" gradientTransform="matrix(0, 101.25, 101.25, 0, -33594.12, 44405.48)" xlink:href="#linear-gradient-4"/>
    <clipPath id="clip-path-21">
      <rect class="cls-1" x="63.77" y="63.89" width="7.19" height="7.19"/>
    </clipPath>
    <clipPath id="clip-path-22">
      <path class="cls-1" d="M70.85,66.61A3.59,3.59,0,1,1,66.49,64a3.58,3.58,0,0,1,4.36,2.61"/>
    </clipPath>
    <linearGradient id="linear-gradient-14" x1="-421.33" y1="368.72" x2="-420.56" y2="368.72" gradientTransform="matrix(0, 9.34, 9.34, 0, -3376.68, 3999.91)" xlink:href="#linear-gradient-11"/>
    <clipPath id="clip-path-23">
      <rect class="cls-1" x="77.72" y="66.72" width="7.84" height="7.84"/>
    </clipPath>
    <clipPath id="clip-path-24">
      <path class="cls-1" d="M85.44,69.69a3.92,3.92,0,1,1-4.75-2.85,3.92,3.92,0,0,1,4.75,2.85"/>
    </clipPath>
    <linearGradient id="linear-gradient-15" x1="-423.06" y1="365.1" x2="-422.29" y2="365.1" gradientTransform="matrix(0, 10.2, 10.2, 0, -3644.15, 4380.33)" xlink:href="#linear-gradient-7"/>
    <clipPath id="clip-path-25">
      <path class="cls-1" d="M80.85,67.48a3.59,3.59,0,1,0,.87-.11,3.24,3.24,0,0,0-.87.11"/>
    </clipPath>
    <linearGradient id="linear-gradient-16" x1="-437.28" y1="332.44" x2="-436.51" y2="332.44" gradientTransform="matrix(-0.01, 101.25, 101.25, 0.01, -33580.04, 44393.82)" xlink:href="#linear-gradient-4"/>
    <clipPath id="clip-path-26">
      <rect class="cls-1" x="78.13" y="67.37" width="7.19" height="7.19"/>
    </clipPath>
    <clipPath id="clip-path-27">
      <path class="cls-1" d="M85.21,70.08a3.59,3.59,0,1,1-4.36-2.6,3.61,3.61,0,0,1,4.36,2.6"/>
    </clipPath>
    <linearGradient id="linear-gradient-17" x1="-421.8" y1="368.4" x2="-421.03" y2="368.4" gradientTransform="matrix(0, 9.34, 9.34, 0, -3359.87, 4007.31)" xlink:href="#linear-gradient-11"/>
  </defs>
  <title>bowllogo</title>
  <g class="cls-2">
    <g id="Layer_1" data-name="Layer 1">
      <path class="cls-3" d="M53.6,85.65A13.87,13.87,0,0,1,52.25,92a14.21,14.21,0,0,1-3.62,4.54,19.45,19.45,0,0,1-5.22,3,36.22,36.22,0,0,1-6.16,1.84,46.75,46.75,0,0,1-6.42.89q-3.22.22-6,.22c-1.84,0-3.74-.06-5.71-.19s-3.93-.37-5.89-.69a53.73,53.73,0,0,1-5.78-1.31,33.19,33.19,0,0,1-5.37-2.07L2,41a54.54,54.54,0,0,1,5.29-1.84c1.86-.55,3.77-1,5.71-1.38s3.87-.65,5.8-.84,3.79-.29,5.59-.29a51.07,51.07,0,0,1,6.38.4,35.73,35.73,0,0,1,6.2,1.33,27.41,27.41,0,0,1,5.55,2.42A18.33,18.33,0,0,1,47,44.5a16.29,16.29,0,0,1,3,5.07,18.9,18.9,0,0,1,1.09,6.66,14.79,14.79,0,0,1-.72,4.67,12.89,12.89,0,0,1-2,3.91,12.71,12.71,0,0,1-3.24,3,13.83,13.83,0,0,1-4.31,1.8,19.64,19.64,0,0,1,5.26,2.22,15.79,15.79,0,0,1,4,3.56,15.59,15.59,0,0,1,2.57,4.71A16.86,16.86,0,0,1,53.6,85.65ZM24.72,74.81a12,12,0,0,0-2.49.26L22.05,85.2c.45.09.89.18,1.31.25a8,8,0,0,0,1.27.11,11.9,11.9,0,0,0,2-.2,5.85,5.85,0,0,0,2.09-.8,5,5,0,0,0,1.63-1.62A5.13,5.13,0,0,0,31,80.23a5.37,5.37,0,0,0-.64-2.76,5,5,0,0,0-1.58-1.66,5.52,5.52,0,0,0-2-.8A11,11,0,0,0,24.72,74.81ZM31,60.32a4.34,4.34,0,0,0-.53-2.2,5.13,5.13,0,0,0-1.31-1.49,5.57,5.57,0,0,0-1.69-.84,5.81,5.81,0,0,0-1.62-.27,5.65,5.65,0,0,0-1.74.27,15.37,15.37,0,0,0-1.64.62l-.27,9.87a21.92,21.92,0,0,0,2.53-.18,10.45,10.45,0,0,0,2.91-.78,6.15,6.15,0,0,0,2.38-1.78A4.89,4.89,0,0,0,31,60.32Z"/>
      <path class="cls-3" d="M110.06,70.1a32.41,32.41,0,0,1-.93,7.8,30.43,30.43,0,0,1-2.69,7,29.27,29.27,0,0,1-4.26,6,27.59,27.59,0,0,1-5.65,4.69,27.44,27.44,0,0,1-14.64,4.13,28,28,0,0,1-7.62-1,29.1,29.1,0,0,1-6.78-2.87A27.41,27.41,0,0,1,57.43,85.67a29.91,29.91,0,0,1-2.8-6.82,28.44,28.44,0,0,1-1-7.6,31.1,31.1,0,0,1,.93-7.58,30.45,30.45,0,0,1,6.94-13,27.75,27.75,0,0,1,5.57-4.75,26.52,26.52,0,0,1,6.69-3.11,25.63,25.63,0,0,1,7.6-1.11,33,33,0,0,1,11.75,2A24.9,24.9,0,0,1,108,58.34,31.9,31.9,0,0,1,110.06,70.1ZM90.33,71.25a12.53,12.53,0,0,0-.55-3.71,10.16,10.16,0,0,0-1.62-3.2,8.27,8.27,0,0,0-2.65-2.26,7.37,7.37,0,0,0-3.62-.87,8.87,8.87,0,0,0-3.73.75A8.6,8.6,0,0,0,75.34,64a9,9,0,0,0-1.8,3.07,10.86,10.86,0,0,0-.62,3.71,13.34,13.34,0,0,0,.53,3.73,11.08,11.08,0,0,0,1.6,3.38,8.43,8.43,0,0,0,2.64,2.44,7.1,7.1,0,0,0,3.67.93,8.33,8.33,0,0,0,3.75-.82,8.67,8.67,0,0,0,2.83-2.22A10.27,10.27,0,0,0,89.71,75,11.48,11.48,0,0,0,90.33,71.25Z"/>
      <path class="cls-3" d="M191.88,39.79l-10.39,61.59-25.24.53L150.83,70,145.4,99.6l-25.24.89-10.48-60.7,22-2,4.44,36.89,6-36.89h17.34l6.93,37.33,3.55-37.33Z"/>
      <path class="cls-3" d="M233,76.14l-1.87,19.73L193.74,98.8q.27-15.51.6-30.84t.82-30.84h23.11q-1,9.74-2,19.45T215,76.14c1.4.06,2.77.09,4.14.09h4.13c1.66,0,3.29,0,4.89,0s3.23,0,4.89,0"/>
      <g class="cls-4">
        <rect class="cls-5" x="66.45" y="41.74" width="104.17" height="87.91" transform="translate(-27.73 87.24) rotate(-36.47)"/>
      </g>
      <g class="cls-6">
        <rect class="cls-7" x="142.31" y="77.9" width="4.54" height="13.99"/>
      </g>
      <g class="cls-8">
        <rect class="cls-9" x="133.56" y="78.57" width="4.54" height="12.66"/>
      </g>
      <g class="cls-10">
        <rect class="cls-11" x="41.51" y="30.24" width="81.7" height="81.7" transform="translate(-26.15 79.06) rotate(-45)"/>
      </g>
      <g class="cls-12">
        <g class="cls-13">
          <g class="cls-14">
            <rect class="cls-15" x="47.21" y="38.76" width="73.37" height="73.37" transform="translate(-28.78 81.42) rotate(-45)"/>
          </g>
        </g>
      </g>
      <g class="cls-12">
        <g class="cls-16">
          <g class="cls-17">
            <rect class="cls-18" x="42.64" y="32.98" width="79.43" height="79.43" transform="translate(-27.28 79.53) rotate(-45)"/>
          </g>
        </g>
      </g>
      <g class="cls-19">
        <g class="cls-20">
          <g class="cls-21">
            <rect class="cls-22" x="49.66" y="34.71" width="48.27" height="48.27" transform="translate(-20 69.42) rotate(-45)"/>
          </g>
        </g>
      </g>
      <g class="cls-12">
        <g class="cls-23">
          <g class="cls-24">
            <rect class="cls-25" x="58.18" y="48.55" width="48.88" height="48.88" transform="translate(-27.41 79.8) rotate(-45)"/>
          </g>
        </g>
      </g>
      <g class="cls-19">
        <g class="cls-26">
          <g class="cls-27">
            <rect class="cls-28" x="72.47" y="50.88" width="12.24" height="12.24" transform="translate(-17.29 72.27) rotate(-45)"/>
          </g>
        </g>
      </g>
      <g class="cls-29">
        <rect class="cls-30" x="73.2" y="52.03" width="10.96" height="10.96" transform="translate(-17.62 72.49) rotate(-45.01)"/>
      </g>
      <g class="cls-12">
        <g class="cls-31">
          <g class="cls-32">
            <rect class="cls-33" x="73.06" y="51.71" width="11.22" height="11.22" transform="translate(-17.49 72.41) rotate(-45)"/>
          </g>
        </g>
      </g>
      <g class="cls-19">
        <g class="cls-34">
          <g class="cls-35">
            <rect class="cls-36" x="61.17" y="61.05" width="12.24" height="12.24" transform="translate(-27.79 67.26) rotate(-45)"/>
          </g>
        </g>
      </g>
      <g class="cls-37">
        <rect class="cls-38" x="61.89" y="62.2" width="10.96" height="10.96" transform="translate(-28.12 67.46) rotate(-45)"/>
      </g>
      <g class="cls-12">
        <g class="cls-39">
          <g class="cls-40">
            <rect class="cls-41" x="61.76" y="61.88" width="11.22" height="11.22" transform="translate(-27.99 67.4) rotate(-45)"/>
          </g>
        </g>
      </g>
      <g class="cls-19">
        <g class="cls-42">
          <g class="cls-43">
            <rect class="cls-44" x="75.52" y="64.52" width="12.24" height="12.24" transform="translate(-26.04 78.42) rotate(-45)"/>
          </g>
        </g>
      </g>
      <g class="cls-45">
        <rect class="cls-46" x="76.24" y="65.67" width="10.96" height="10.96" transform="translate(-26.37 78.63) rotate(-45)"/>
      </g>
      <g class="cls-12">
        <g class="cls-47">
          <g class="cls-48">
            <rect class="cls-49" x="76.11" y="65.35" width="11.22" height="11.22" transform="translate(-26.24 78.58) rotate(-45)"/>
          </g>
        </g>
      </g>
      <path class="cls-50" d="M17.25,99.32c-.07,1.09-.14,2.16-.19,3.23s-.14,2.14-.23,3.23l-7.37.39v2.19h6.4l-.35,5.39-6.09.17,0,10.3-8.8.17.55-25.07Z"/>
      <path class="cls-50" d="M39.2,112.11a12.33,12.33,0,0,1-.37,3.06,11.68,11.68,0,0,1-1,2.75,11.2,11.2,0,0,1-1.67,2.36,10.51,10.51,0,0,1-2.21,1.83,10.4,10.4,0,0,1-2.67,1.19,10.53,10.53,0,0,1-3.06.43,10.83,10.83,0,0,1-3-.4,11.53,11.53,0,0,1-2.65-1.12,10.46,10.46,0,0,1-2.23-1.74,10.76,10.76,0,0,1-1.71-2.26,11.61,11.61,0,0,1-1.09-2.67,11.2,11.2,0,0,1-.39-3,12.32,12.32,0,0,1,.36-3,11.81,11.81,0,0,1,2.71-5.1,10.8,10.8,0,0,1,2.19-1.86A10.39,10.39,0,0,1,25,101.42a10,10,0,0,1,3-.43,12.93,12.93,0,0,1,4.59.78A9.89,9.89,0,0,1,36.11,104a10,10,0,0,1,2.28,3.52A12.42,12.42,0,0,1,39.2,112.11Zm-7.72.46a4.78,4.78,0,0,0-.22-1.46,4.08,4.08,0,0,0-.63-1.25,3.28,3.28,0,0,0-1-.88,2.84,2.84,0,0,0-1.42-.34,3.59,3.59,0,0,0-1.46.29,3.4,3.4,0,0,0-1.8,2,4.13,4.13,0,0,0-.25,1.45,5.21,5.21,0,0,0,.21,1.46,4.24,4.24,0,0,0,.63,1.32,3.15,3.15,0,0,0,1,1,2.8,2.8,0,0,0,1.44.37,3.31,3.31,0,0,0,2.57-1.2,3.84,3.84,0,0,0,.69-1.26A4.28,4.28,0,0,0,31.48,112.57Z"/>
      <path class="cls-50" d="M60.79,107.63a11.69,11.69,0,0,1-.23,2.46,7.22,7.22,0,0,1-2,3.73,11.81,11.81,0,0,1-1.93,1.49l4.14,7.38-7.83,1.53-2.68-7.41-2.15.07-.32,7.23H40.28c0-2.64.11-5.27.16-7.89s.11-5.25.18-7.9c0-1.33.05-2.65.07-4s.07-2.63.14-4a21.2,21.2,0,0,1,2.4-.74,21.72,21.72,0,0,1,2.38-.46c.79-.11,1.6-.19,2.41-.23s1.66-.06,2.52-.06a13.24,13.24,0,0,1,3.83.55,9.91,9.91,0,0,1,3.28,1.64,8.17,8.17,0,0,1,2.28,2.73A8,8,0,0,1,60.79,107.63Zm-7.79.55a4.32,4.32,0,0,0-.19-1.33,3.15,3.15,0,0,0-.6-1.06,2.76,2.76,0,0,0-1-.69,3.37,3.37,0,0,0-1.36-.25,5,5,0,0,0-.68,0,4.67,4.67,0,0,0-.65.13l-.27,6.47h.41a6.66,6.66,0,0,0,1.52-.19,4.7,4.7,0,0,0,1.39-.59,3.2,3.2,0,0,0,1-1A2.79,2.79,0,0,0,53,108.18Z"/>
      <path class="cls-50" d="M91,99.49l-8.38,11.58,7.06,12.31-8.07,1.43-5.29-7.51L76,125.16l-7.23.27.56-26.64,8.1.46-.63,7.86,5.4-8.32Z"/>
      <path class="cls-50" d="M100.22,99.91,98.3,123.59,91,124V100.39Z"/>
      <path class="cls-50" d="M121.12,110.58a14.23,14.23,0,0,1-.63,4.39,11.85,11.85,0,0,1-1.75,3.48,11.45,11.45,0,0,1-2.67,2.62,15.24,15.24,0,0,1-3.39,1.8,19.44,19.44,0,0,1-3.92,1,26,26,0,0,1-4.27.34c-.54,0-1.07,0-1.6,0s-1-.07-1.6-.13l.49-23.34a22.67,22.67,0,0,1,3.94-.86,32.14,32.14,0,0,1,4-.25,13.46,13.46,0,0,1,4.58.75,10.34,10.34,0,0,1,3.6,2.15,9.79,9.79,0,0,1,2.35,3.45A11.94,11.94,0,0,1,121.12,110.58ZM114,111.7a7.18,7.18,0,0,0-.2-1.81,4.46,4.46,0,0,0-.72-1.54,3.66,3.66,0,0,0-1.26-1.08,4.11,4.11,0,0,0-1.82-.44l-.7,10.78a4.93,4.93,0,0,0,1.9-.69,5.77,5.77,0,0,0,2.42-3,6.61,6.61,0,0,0,.38-2Z"/>
      <path class="cls-50" d="M140,115.14a9.77,9.77,0,0,1-.83,4.16,8.27,8.27,0,0,1-2.26,3,9.65,9.65,0,0,1-3.36,1.77,13.75,13.75,0,0,1-4.13.59,8.76,8.76,0,0,1-1.87-.22,21.23,21.23,0,0,1-2.06-.57c-.69-.22-1.36-.47-2-.73s-1.22-.5-1.72-.74l.77-7.16a12.23,12.23,0,0,0,3.27,1.35,14.71,14.71,0,0,0,3.54.46l.8,0a3.68,3.68,0,0,0,.9-.16,1.8,1.8,0,0,0,.72-.39.92.92,0,0,0,.3-.74.84.84,0,0,0-.21-.57,1.54,1.54,0,0,0-.54-.38,3.68,3.68,0,0,0-.75-.23,8,8,0,0,0-.82-.11c-.26,0-.51,0-.74,0h-.56a6.8,6.8,0,0,1-2.72-.52,6.26,6.26,0,0,1-2.11-1.45,6.63,6.63,0,0,1-1.36-2.21,7.57,7.57,0,0,1-.49-2.77,8,8,0,0,1,.83-3.68,8.48,8.48,0,0,1,2.21-2.76A10.08,10.08,0,0,1,128,99.23a11.3,11.3,0,0,1,3.7-.61c.57,0,1.16,0,1.76.06a15.79,15.79,0,0,1,1.8.22,16.49,16.49,0,0,1,1.75.4,9.39,9.39,0,0,1,1.61.61l-.66,7.06a20.27,20.27,0,0,0-2.47-.67,12.45,12.45,0,0,0-2.53-.27h-.59a6.42,6.42,0,0,0-.74,0,7.82,7.82,0,0,0-.8.13,4.23,4.23,0,0,0-.71.23,1.25,1.25,0,0,0-.5.4.81.81,0,0,0-.18.57.89.89,0,0,0,.29.62,2,2,0,0,0,.7.36,4.24,4.24,0,0,0,.94.18c.34,0,.68.06,1,.07h.94a5,5,0,0,1,.71,0,7.28,7.28,0,0,1,2.51.59,5.65,5.65,0,0,1,3.07,3.33A7.66,7.66,0,0,1,140,115.14Z"/>
      <path class="cls-50" d="M165.82,115.14a9.77,9.77,0,0,1-.82,4.16,8.39,8.39,0,0,1-2.26,3,9.65,9.65,0,0,1-3.36,1.77,13.79,13.79,0,0,1-4.13.59,8.69,8.69,0,0,1-1.87-.22,21.23,21.23,0,0,1-2.06-.57c-.69-.22-1.36-.47-2-.73s-1.21-.5-1.71-.74l.76-7.16a12.44,12.44,0,0,0,3.28,1.35,14.58,14.58,0,0,0,3.54.46l.8,0a3.86,3.86,0,0,0,.9-.16,1.8,1.8,0,0,0,.72-.39,1,1,0,0,0,.29-.74.84.84,0,0,0-.21-.57,1.42,1.42,0,0,0-.53-.38,3.88,3.88,0,0,0-.75-.23,8,8,0,0,0-.82-.11c-.27,0-.52,0-.75,0h-.55a6.8,6.8,0,0,1-2.72-.52,6.26,6.26,0,0,1-2.11-1.45,6.63,6.63,0,0,1-1.36-2.21,7.57,7.57,0,0,1-.49-2.77,8.16,8.16,0,0,1,.82-3.68,8.75,8.75,0,0,1,2.21-2.76,10.13,10.13,0,0,1,3.18-1.75,11.3,11.3,0,0,1,3.7-.61c.57,0,1.15,0,1.76.06a15.79,15.79,0,0,1,1.8.22,16.31,16.31,0,0,1,1.74.4,9.5,9.5,0,0,1,1.62.61l-.66,7.06a20.43,20.43,0,0,0-2.48-.67,12.38,12.38,0,0,0-2.53-.27h-.58a6.59,6.59,0,0,0-.75,0,7.64,7.64,0,0,0-.79.13,4.23,4.23,0,0,0-.71.23,1.36,1.36,0,0,0-.51.4.86.86,0,0,0-.17.57.85.85,0,0,0,.29.62,2,2,0,0,0,.69.36,4.48,4.48,0,0,0,.94.18c.34,0,.68.06,1,.07h.94a5,5,0,0,1,.71,0,7.23,7.23,0,0,1,2.5.59,5.62,5.62,0,0,1,3.08,3.33A7.66,7.66,0,0,1,165.82,115.14Z"/>
      <path class="cls-50" d="M188.6,122.9,180,124l-1-3.93h-4l-.87,3.93-8.87-.87L172.15,100l9.66-.49Zm-10.3-8.14L177,108.71l-1.29,6.05Z"/>
      <path class="cls-50" d="M211,99.49l-8.38,11.58,7.06,12.31-8.07,1.43-5.29-7.51-.28,7.86-7.23.27.56-26.64,8.1.46-.63,7.86,5.4-8.32Z"/>
      <path class="cls-50" d="M227.3,99.32c-.07,1.09-.13,2.16-.19,3.23s-.13,2.14-.23,3.23l-7.37.39-.17,2.19h5.18l-.38,5.39-5.22.17-.17,2.54h7.37c-.07,1.28-.14,2.54-.22,3.8s-.14,2.52-.2,3.78l-15,.35.56-25.07Z"/>
      <path class="cls-51" d="M1.21,99.32.66,124.39l8.8-.17,0-10.3,6.09-.17.34-5.39H9.46v-2.19l7.37-.39c.09-1.09.17-2.16.23-3.23s.12-2.14.19-3.23Z"/>
      <path class="cls-51" d="M31.21,114a3.69,3.69,0,0,1-.7,1.26,3.13,3.13,0,0,1-1.1.87,3.18,3.18,0,0,1-1.47.33,2.79,2.79,0,0,1-1.43-.37,3.18,3.18,0,0,1-1-1,4,4,0,0,1-.62-1.32,5.21,5.21,0,0,1-.21-1.46,4.37,4.37,0,0,1,.24-1.45,3.58,3.58,0,0,1,.7-1.2,3.46,3.46,0,0,1,1.11-.81,3.56,3.56,0,0,1,1.46-.29,2.87,2.87,0,0,1,1.42.34,3.24,3.24,0,0,1,1,.88,4.1,4.1,0,0,1,.64,1.25,5.1,5.1,0,0,1,.21,1.46A4.53,4.53,0,0,1,31.21,114Zm7.16-6.52a9.71,9.71,0,0,0-5.83-5.75,13,13,0,0,0-4.6-.78,10,10,0,0,0-3,.43,10.62,10.62,0,0,0-2.62,1.22,10.74,10.74,0,0,0-2.18,1.86,12.1,12.1,0,0,0-1.66,2.36,12.28,12.28,0,0,0-1.42,5.71,11.2,11.2,0,0,0,.39,3,11.63,11.63,0,0,0,1.1,2.67,10.77,10.77,0,0,0,3.93,4,11.61,11.61,0,0,0,2.66,1.12,10.78,10.78,0,0,0,3,.4,10.53,10.53,0,0,0,3.06-.43,10.67,10.67,0,0,0,4.88-3,11.57,11.57,0,0,0,1.67-2.36,12.13,12.13,0,0,0,1.05-2.75,12.82,12.82,0,0,0,.36-3.06A12.63,12.63,0,0,0,38.37,107.52Z"/>
      <path class="cls-51" d="M52.59,109.68a3.31,3.31,0,0,1-1,1,4.7,4.7,0,0,1-1.39.59,6.73,6.73,0,0,1-1.52.19h-.42l.28-6.47a4.53,4.53,0,0,1,.64-.13,5.06,5.06,0,0,1,.68,0,3.42,3.42,0,0,1,1.37.26,2.85,2.85,0,0,1,1,.69,3,3,0,0,1,.59,1,4.43,4.43,0,0,1,.2,1.34A2.79,2.79,0,0,1,52.59,109.68Zm7.32-5.86a8.2,8.2,0,0,0-2.29-2.73,9.86,9.86,0,0,0-3.27-1.64,13.35,13.35,0,0,0-3.84-.55c-.86,0-1.69,0-2.51.06s-1.62.12-2.42.23a22,22,0,0,0-2.37.46,21.2,21.2,0,0,0-2.4.74c-.07,1.34-.12,2.66-.14,4s-.05,2.63-.07,4q-.1,4-.18,7.9c-.06,2.62-.11,5.25-.17,7.89h7.48l.31-7.23,2.16-.07,2.68,7.41,7.82-1.53-4.14-7.38a11,11,0,0,0,1.93-1.49,7.08,7.08,0,0,0,1.31-1.71,7.71,7.71,0,0,0,.74-2,12.4,12.4,0,0,0,.23-2.46A8.11,8.11,0,0,0,59.91,103.82Z"/>
      <polygon class="cls-51" points="82.21 98.8 76.82 107.11 77.45 99.25 69.34 98.8 68.79 125.43 76.02 125.16 76.3 117.3 81.58 124.81 89.65 123.38 82.59 111.07 90.98 99.49 82.21 98.8"/>
      <polygon class="cls-51" points="90.94 100.39 90.94 123.97 98.28 123.59 100.19 99.91 90.94 100.39"/>
      <path class="cls-51" d="M114,111.94a6.6,6.6,0,0,1-.37,2,6.18,6.18,0,0,1-1,1.72,5.73,5.73,0,0,1-1.47,1.3,4.94,4.94,0,0,1-1.89.69l.69-10.78a4.12,4.12,0,0,1,1.83.44,3.66,3.66,0,0,1,1.26,1.08,4.26,4.26,0,0,1,.71,1.54,6.75,6.75,0,0,1,.2,1.81Zm6.29-6a9.68,9.68,0,0,0-2.36-3.45,10.34,10.34,0,0,0-3.6-2.15,13.4,13.4,0,0,0-4.57-.75,32.29,32.29,0,0,0-4,.25,22.67,22.67,0,0,0-3.94.86l-.48,23.34c.54.06,1.08.1,1.6.13s1,0,1.6,0a26.09,26.09,0,0,0,4.27-.34,19.62,19.62,0,0,0,3.92-1,15.24,15.24,0,0,0,3.39-1.8,11.65,11.65,0,0,0,2.67-2.62,11.85,11.85,0,0,0,1.75-3.48,14.55,14.55,0,0,0,.62-4.39A11.94,11.94,0,0,0,120.25,106Z"/>
      <path class="cls-51" d="M139.53,112.59a5.6,5.6,0,0,0-1.18-2,5.89,5.89,0,0,0-1.89-1.34,7.23,7.23,0,0,0-2.5-.59,5.08,5.08,0,0,0-.71,0h-.94c-.34,0-.68,0-1-.07a4.36,4.36,0,0,1-.94-.18,2,2,0,0,1-.69-.36.85.85,0,0,1-.29-.62.86.86,0,0,1,.17-.57,1.36,1.36,0,0,1,.51-.4,3.7,3.7,0,0,1,.71-.23,7.64,7.64,0,0,1,.79-.13,6.59,6.59,0,0,1,.75,0h.58a12.38,12.38,0,0,1,2.53.27,20.94,20.94,0,0,1,2.48.67l.66-7.06a9.5,9.5,0,0,0-1.62-.61,16.49,16.49,0,0,0-1.75-.4,17.85,17.85,0,0,0-1.79-.22c-.61,0-1.19-.06-1.76-.06a11.36,11.36,0,0,0-3.71.61,10.08,10.08,0,0,0-3.17,1.75,8.62,8.62,0,0,0-2.21,2.76,8,8,0,0,0-.82,3.68,7.79,7.79,0,0,0,.48,2.77,6.65,6.65,0,0,0,1.37,2.21,6.08,6.08,0,0,0,2.1,1.45,6.87,6.87,0,0,0,2.72.52H129c.23,0,.48,0,.75,0a7.5,7.5,0,0,1,.81.11,3.68,3.68,0,0,1,.75.23,1.54,1.54,0,0,1,.54.38.84.84,0,0,1,.21.57,1,1,0,0,1-.29.74,1.8,1.8,0,0,1-.72.39,3.86,3.86,0,0,1-.9.16l-.8,0a14.58,14.58,0,0,1-3.54-.46,12.44,12.44,0,0,1-3.28-1.35l-.76,7.16c.49.24,1.07.48,1.71.74s1.31.51,2,.73a20.47,20.47,0,0,0,2.06.57,8.69,8.69,0,0,0,1.87.22,13.79,13.79,0,0,0,4.13-.59,9.51,9.51,0,0,0,3.35-1.77,8.16,8.16,0,0,0,2.26-3,9.62,9.62,0,0,0,.83-4.16A7.42,7.42,0,0,0,139.53,112.59Z"/>
      <path class="cls-51" d="M165.39,112.59a5.75,5.75,0,0,0-1.18-2,5.89,5.89,0,0,0-1.89-1.34,7.28,7.28,0,0,0-2.5-.59,5.23,5.23,0,0,0-.72,0h-.94c-.33,0-.67,0-1-.07a4.24,4.24,0,0,1-.94-.18,2,2,0,0,1-.7-.36.84.84,0,0,1-.28-.62.76.76,0,0,1,.17-.57,1.41,1.41,0,0,1,.5-.4,4.07,4.07,0,0,1,.72-.23,7.22,7.22,0,0,1,.79-.13,6.59,6.59,0,0,1,.75,0h.58a12.45,12.45,0,0,1,2.53.27,20.94,20.94,0,0,1,2.48.67l.66-7.06a9.5,9.5,0,0,0-1.62-.61,16.49,16.49,0,0,0-1.75-.4c-.6-.1-1.2-.18-1.8-.22s-1.19-.06-1.75-.06a11.36,11.36,0,0,0-3.71.61,10.08,10.08,0,0,0-3.17,1.75,8.62,8.62,0,0,0-2.21,2.76,8,8,0,0,0-.82,3.68,7.79,7.79,0,0,0,.48,2.77,6.65,6.65,0,0,0,1.37,2.21,6,6,0,0,0,2.1,1.45,6.84,6.84,0,0,0,2.72.52h.56c.23,0,.48,0,.75,0s.53.06.81.11a3.68,3.68,0,0,1,.75.23,1.54,1.54,0,0,1,.54.38.84.84,0,0,1,.21.57.92.92,0,0,1-.3.74,1.73,1.73,0,0,1-.72.39,3.69,3.69,0,0,1-.89.16l-.8,0a14.58,14.58,0,0,1-3.54-.46,12.44,12.44,0,0,1-3.28-1.35l-.76,7.16c.49.24,1.06.48,1.71.74s1.31.51,2,.73a20.47,20.47,0,0,0,2.06.57,8.62,8.62,0,0,0,1.87.22,13.68,13.68,0,0,0,4.12-.59,9.56,9.56,0,0,0,3.36-1.77,8.27,8.27,0,0,0,2.26-3,9.77,9.77,0,0,0,.83-4.16A7.66,7.66,0,0,0,165.39,112.59Z"/>
      <path class="cls-51" d="M175.66,114.76l1.28-6.05,1.33,6.05Zm6.12-15.27-9.67.49-6.92,23.16,8.87.87.87-3.93h4l1,3.93,8.63-1.11Z"/>
      <polygon class="cls-51" points="202.21 98.8 196.82 107.11 197.44 99.25 189.34 98.8 188.79 125.43 196.02 125.16 196.3 117.3 201.59 124.81 209.65 123.38 202.59 111.07 210.97 99.49 202.21 98.8"/>
      <path class="cls-51" d="M211.23,99.32l-.55,25.07,15-.35c.06-1.26.12-2.52.2-3.78s.15-2.52.21-3.8h-7.37l.17-2.54,5.22-.17.39-5.39H219.3l.18-2.19,7.37-.39c.09-1.09.17-2.16.22-3.23s.13-2.14.2-3.23Z"/>
      <path class="cls-52" d="M110.71,36.91a.93.93,0,0,0,0,.33s.08,0,.07,0a1,1,0,0,1,.05-.29s-.07-.08-.08,0"/>
      <path d="M56.84,4.22c.3-.29.29-.68.68-.68C58.4,3.5,70.32,2,81.46,1.8c.66-.07.62.19.68.59l.09,1.75c0,.49-.25.63-.93.68-1.56,0-12,.28-15.28.8a4.62,4.62,0,0,1,1.36,1.76c.14.19.64.49-.06,2-1.27,2.19-5.9,13.84-6.58,15.69-.45,1.11-.93,1-1.37.57s-1.55-1.27-1.89-1.56-.34-.73-.09-1.36a141.51,141.51,0,0,1,7.71-17c-1,.05-6.72.66-8.81.79-.58.05-.78,0-.48-.49A6.89,6.89,0,0,1,56.84,4.22Z"/>
      <path d="M73.2,11.6a2.44,2.44,0,1,0-2.43-2.45A2.44,2.44,0,0,0,73.2,11.6Z"/>
      <path d="M94,16.79a.53.53,0,0,0-.19-.73,16.54,16.54,0,0,0-1.79-1.52c-.15-.14-.49,0-.69.29-2.24,2-4.29,3.87-6.59,6.1.49-1.12,2.06-4.22,2.6-5.1a.54.54,0,0,0-.19-.73,15.69,15.69,0,0,0-1.84-1.51c-.24-.1-.24-.15-.44.14-2.25,2.13-4.54,4.55-6.71,6.73.49-1.11,2.27-4.75,2.81-5.63a.54.54,0,0,0-.19-.73,19.66,19.66,0,0,0-1.94-1.37c-.24-.1-.24-.14-.44.15a60.31,60.31,0,0,1-8.84,9.35c-.25.29-.63.28-.37-.18A38,38,0,0,1,72.06,16c.7-1.55.19-1.85.06-2a7,7,0,0,0-1.55-1.66c-.34-.15-.49-.29-.73.09a52.13,52.13,0,0,0-4.18,9.18c-.33.85-.18,1.14.09,1.36s1.36,1.17,1.89,1.56.73.35,2-.67C71,22.43,75,19.09,76,17.75c-.46.9-1.64,3.82-2.28,4.93-.24.44-.29.68,0,.93s1.55.88,1.89,1.07.39.15.68-.14a72.74,72.74,0,0,1,6.91-7.14c-.61,1.09-2.27,3.85-2.91,5-.25.44-.3.68,0,.92s1.84,1.37,2.18,1.57.39.15.69-.14a77.92,77.92,0,0,1,6.51-6.57,11.14,11.14,0,0,0-2.33,5.37c0,1.31.92,2.24,2.57,2.25A2.78,2.78,0,0,0,92.45,24a1,1,0,0,1-1.5-.83,6.82,6.82,0,0,1,1.23-3.6C93,18.1,93.5,17.66,94,16.79Z"/>
      <path d="M174.43,18.21a3.62,3.62,0,0,1,.7-2.82c.29-.48-.09-1.46-.53-2-.29-.48-.66-.8-.81-1s-.23-.33-.4-.1a53.09,53.09,0,0,0-6.17,8.42c-.78,1.16-2.15,3.34-2.93,3.34-.58,0-.53-1.56-.08-2.68a27.3,27.3,0,0,1,2.16-4.7.72.72,0,0,0,0-1,18.78,18.78,0,0,0-1.21-1.46s-.22-.35-.46,0c-.74.72-5.35,5-6.67,6.19.3-.68,1.67-3.64,2-4.23.15-.24.3-.43.06-.68s-1.6-1.56-1.75-1.81-.23-.21-.49,0c-.74.63-3.75,3.64-5.12,3.59.23-2.42-1.24-4.48-4.11-4.25-3.21.23-6.26,4.69-6.8,7.65-.73,1.07-2.93,2.91-4,2.91s-.37-1.88,0-2.68c.74-1.6,4.42-9.81,4.42-9.81,2.83-.08,9.34-.15,10.12-.1.58,0,.59-.19.59-.43a8.75,8.75,0,0,0-.34-1.17c-.09-.25-.09-.54-.58-.54-.87,0-7.15.51-9,.64.29-.63.84-1.89,1-2.23a.8.8,0,0,0-.14-1c-.44-.39-1.31-1.32-1.6-1.61s-.58-.3-.82.19c-.4.92-1.68,3.93-2.22,5-.58,0-2,.23-2.43.23-.24,0-.48,0-.68.24a4.74,4.74,0,0,0-.44.73c-.25.29,0,.43.44.44.87,0,2,0,2.38,0-.74,1.36-2.41,5.29-3.44,7.08s-3.08,4.71-4.54,4.7c-.73,0-.77-1.36-.23-2.53s2.4-5.05,3.18-6.21c.3-.49.35-1.07-.28-1.22s-1.12.09-1.46-.59c-.19-.44,0-2.28-.38-2.58s-.63-.15-.83.24c-.73,1.41-2.93,4.46-5.27,5.57,0-2.25-1.56-3.41-5.24-3.43l-5.2.08c.58-1.41,3.53-7.48,3.83-8.11a1,1,0,0,0-.24-1.36l-1.17-.83c-.29-.25-.82-.49-1.26.28-1,2.09-4.08,8.6-4.76,10.25-.93,0-4.62.12-6.23.16.93-1.94,3.44-8,4-9.07.29-.44.3-1.12,0-1.36-.44-.45-1.41-1.42-1.85-1.81s-.82-.06-1.07.53c-.54,1.16-4.42,10.24-5.11,12-.73,0-2,.09-2,.82s.68.78,1.22.73c-.4.92-2,5-2.71,6.65a1.93,1.93,0,0,0-.11,2.14l1.7,1.57c.29.29.73.63,1.17-.44s3.34-8.25,3.69-9c1.45.69,4,3.72,3.46,8-.05.25-.24.73.19,1l1.12.79c.34.29.63.05.88-.48.25-.69,2-5.19,3.43-8.41.49-1.14.93-2.12,1.24-2.71l4.13,0a8.55,8.55,0,0,0-4.26,7.08c0,2.84,1.83,4.34,4.55,4.35a6.76,6.76,0,0,0,4.56-2.84,9.51,9.51,0,0,0,1.9-5.21,20.31,20.31,0,0,0,4.39-3.58,1.24,1.24,0,0,0,.38.93c-1.12,1.35-3.77,5.48-3.77,7.81,0,1.54,1.09,2.34,3,2.35a6.83,6.83,0,0,0,5.32-3.33c-.5,1.79,0,3.5,2.46,3.51,1.8,0,3.23-1.23,4.88-2.75a3.46,3.46,0,0,0,3.68,3.42c2.29,0,4.76-1.85,6.23-4.87a12.49,12.49,0,0,0,.85-2.25,12.64,12.64,0,0,0,3.66-1.93,53.56,53.56,0,0,0-2.8,5.53c-.24.39-.44.78-.15,1l1.6,1.42c.34.34.83.1,1.12-.29s5-5.18,6-6.05a7.88,7.88,0,0,0-1.23,4c0,1,.57,3.26,2.9,3.27s3.13-2.71,4.55-4.64a36,36,0,0,1,3.32-4.47,8.29,8.29,0,0,0-.45,2.95c0,1.48,1.68,2.92,1.38,4.1-.3.64-.49,1-1.37,1-1.92,0-1.12-2.54-1.5-2.73s-1,1-1.25,1.55c-.34.78.17,1.57,1.69,1.93,2.06.49,3.85.14,4.93-1.95C175.78,21.86,175.25,20.21,174.43,18.21ZM108.82,19a6.42,6.42,0,0,0-3.29-4.58c1.65-.09,3.94-.13,5.2-.22-.19.42-.52,1.25-.85,2.1C109.45,17.38,109,18.53,108.82,19Zm12.91,2.66a3.12,3.12,0,0,1-2.33,1.13c-1.31,0-1.79-1.32-1.79-2.29a5.57,5.57,0,0,1,2.89-4.27c.24,1.12,1.21,2.05,3.06,1.81A9.77,9.77,0,0,1,121.73,21.65ZM147,23.44a1.67,1.67,0,0,1-1.74-1.91,6.68,6.68,0,0,1,2.55-4.61c.23,1.12.86,2.39,2.81,2a14.46,14.46,0,0,1-.69,1.83C149.28,22.05,148.29,23.45,147,23.44Z"/>
      <path class="cls-53" d="M175.59,25a1.49,1.49,0,1,1,1.49,1.49A1.48,1.48,0,0,1,175.59,25Zm2.79,0a1.31,1.31,0,1,0-1.3,1.31A1.3,1.3,0,0,0,178.38,25Zm-.56.83h-.24l-.48-.77h-.37v.77h-.2V24.19h.72a.84.84,0,0,1,.41.08.42.42,0,0,1,.18.36c0,.33-.23.45-.52.45Zm-.78-.92c.23,0,.6,0,.6-.3s-.23-.29-.43-.29h-.48v.59Z"/>
      <path class="cls-53" d="M56.29,3.67c.3-.3.29-.68.68-.68.88,0,12.8-1.55,23.94-1.74.66-.07.62.19.68.59l.09,1.75c0,.48-.25.63-.93.68-1.56,0-12,.28-15.28.8a4.74,4.74,0,0,1,1.36,1.76c.13.19.64.49-.06,2-1.27,2.19-5.9,13.84-6.59,15.68-.44,1.12-.92,1-1.36.58s-1.55-1.27-1.89-1.56-.34-.73-.09-1.36a141.51,141.51,0,0,1,7.71-17c-1,0-6.72.66-8.81.79-.58,0-.78,0-.48-.49A6.89,6.89,0,0,1,56.29,3.67Z"/>
      <path class="cls-53" d="M72.65,11.05A2.45,2.45,0,1,0,70.22,8.6,2.45,2.45,0,0,0,72.65,11.05Z"/>
      <path class="cls-53" d="M93.49,16.24a.53.53,0,0,0-.19-.73A15.81,15.81,0,0,0,91.5,14c-.14-.15-.48,0-.68.29-2.24,2-4.29,3.87-6.59,6.1.49-1.12,2.06-4.22,2.6-5.1a.54.54,0,0,0-.19-.73A17.55,17.55,0,0,0,84.8,13c-.25-.1-.25-.15-.44.14-2.25,2.13-4.54,4.55-6.71,6.73.49-1.11,2.27-4.75,2.81-5.63a.54.54,0,0,0-.19-.73,19.66,19.66,0,0,0-1.94-1.37c-.24-.1-.24-.14-.44.15a59.78,59.78,0,0,1-8.84,9.34c-.25.3-.63.29-.37-.17a38,38,0,0,1,2.83-6.09c.7-1.55.19-1.85.06-2A7,7,0,0,0,70,11.71c-.34-.15-.49-.3-.73.09A52.13,52.13,0,0,0,65.11,21c-.33.85-.18,1.14.09,1.36s1.36,1.17,1.89,1.56.73.35,2-.67c1.42-1.35,5.42-4.69,6.42-6-.46.9-1.64,3.81-2.28,4.93-.24.44-.29.68,0,.93s1.55.88,1.89,1.07.39.15.68-.14a73,73,0,0,1,6.91-7.15c-.61,1.1-2.28,3.86-2.91,5-.25.44-.3.68,0,.92s1.85,1.37,2.18,1.57.39.15.69-.14a77.92,77.92,0,0,1,6.51-6.57A11.14,11.14,0,0,0,86.89,23c0,1.31.92,2.24,2.57,2.25a2.78,2.78,0,0,0,2.44-1.79,1,1,0,0,1-1.5-.83A6.82,6.82,0,0,1,91.63,19C92.46,17.55,93,17.11,93.49,16.24Z"/>
      <path class="cls-53" d="M173.88,17.66a3.62,3.62,0,0,1,.7-2.82c.29-.49-.09-1.46-.53-1.95s-.67-.8-.81-1.05-.23-.33-.4-.1a53.09,53.09,0,0,0-6.17,8.42c-.78,1.16-2.15,3.34-2.93,3.34-.58,0-.53-1.56-.08-2.67a27.9,27.9,0,0,1,2.15-4.72.7.7,0,0,0,.06-1,18.78,18.78,0,0,0-1.21-1.46s-.22-.35-.46-.05c-.74.73-5.35,5-6.67,6.2.3-.68,1.67-3.64,2-4.23.14-.24.29-.43.05-.68s-1.6-1.56-1.75-1.81-.23-.21-.49,0c-.74.63-3.75,3.64-5.11,3.59.22-2.42-1.25-4.48-4.12-4.25-3.21.23-6.26,4.69-6.8,7.65-.73,1.07-2.93,2.91-3.95,2.9s-.37-1.87,0-2.67c.74-1.6,4.42-9.81,4.42-9.81,2.83-.08,9.34-.15,10.12-.1.58.05.59-.19.59-.43a8.75,8.75,0,0,0-.34-1.17c-.1-.25-.09-.54-.58-.54-.87,0-7.15.5-9.05.64.3-.63.84-1.89,1-2.23a.8.8,0,0,0-.14-1c-.44-.39-1.31-1.32-1.6-1.62s-.58-.29-.83.2c-.39.92-1.67,3.93-2.21,5-.58,0-2,.23-2.43.23-.24,0-.49-.05-.68.24a4.74,4.74,0,0,0-.44.73c-.25.29,0,.43.43.44.88-.05,2.05,0,2.39,0-.74,1.35-2.41,5.29-3.44,7.08s-3.08,4.71-4.54,4.7c-.73,0-.77-1.36-.24-2.53s2.41-5.05,3.19-6.21c.3-.49.35-1.07-.28-1.22s-1.12.09-1.46-.59c-.19-.44,0-2.28-.38-2.58s-.63-.15-.83.24c-.73,1.41-2.93,4.46-5.27,5.57,0-2.25-1.56-3.41-5.24-3.43l-5.2.08c.59-1.41,3.53-7.48,3.83-8.11a1,1,0,0,0-.24-1.36l-1.17-.83c-.29-.25-.82-.49-1.26.28-1,2.09-4.08,8.6-4.77,10.25-.92,0-4.62.12-6.22.16.93-1.94,3.44-8,4-9.07a1.1,1.1,0,0,0,0-1.37c-.43-.44-1.4-1.41-1.84-1.8s-.82-.06-1.07.53c-.54,1.16-4.42,10.24-5.11,12-.73,0-1.95.09-2,.81s.68.79,1.22.74c-.4.92-2,5-2.71,6.65a1.93,1.93,0,0,0-.11,2.14l1.7,1.56c.29.3.73.64,1.17-.43s3.34-8.25,3.69-9c1.45.69,4,3.72,3.46,8,0,.25-.24.73.19,1l1.12.79c.34.29.63,0,.88-.49s2-5.18,3.43-8.4c.49-1.14.93-2.12,1.24-2.71l4.13,0a8.53,8.53,0,0,0-4.26,7.08c0,2.83,1.83,4.33,4.55,4.35A6.73,6.73,0,0,0,122.71,22a9.44,9.44,0,0,0,1.91-5.21A20.31,20.31,0,0,0,129,13.23a1.24,1.24,0,0,0,.38.93c-1.12,1.35-3.77,5.48-3.77,7.81,0,1.54,1.09,2.34,3,2.35A6.83,6.83,0,0,0,134,21c-.5,1.79,0,3.5,2.46,3.51,1.8,0,3.23-1.24,4.88-2.75A3.45,3.45,0,0,0,145,25.17c2.29,0,4.76-1.85,6.23-4.87a12.49,12.49,0,0,0,.85-2.25,12.64,12.64,0,0,0,3.66-1.93,53.56,53.56,0,0,0-2.8,5.53c-.24.39-.44.78-.15,1l1.6,1.42c.34.34.82.1,1.12-.29s5-5.18,6-6.05a7.86,7.86,0,0,0-1.23,4c0,1,.57,3.26,2.9,3.27s3.12-2.71,4.54-4.65A37.65,37.65,0,0,1,171,15.89a8.07,8.07,0,0,0-.45,2.95c0,1.48,1.68,2.92,1.38,4.1-.3.64-.49,1-1.37,1-1.92,0-1.11-2.54-1.5-2.73s-1,1-1.25,1.55c-.34.77.17,1.57,1.69,1.93,2.06.49,3.85.14,4.92-2C175.23,21.31,174.7,19.66,173.88,17.66Zm-65.61.78A6.46,6.46,0,0,0,105,13.85c1.65-.09,3.94-.12,5.2-.22-.19.43-.52,1.26-.86,2.11C108.9,16.83,108.46,18,108.27,18.44Zm12.9,2.65a3.06,3.06,0,0,1-2.32,1.14c-1.31,0-1.79-1.32-1.79-2.29A5.57,5.57,0,0,1,120,15.67c.24,1.12,1.21,2,3.06,1.82A9.67,9.67,0,0,1,121.17,21.09Zm25.26,1.8A1.66,1.66,0,0,1,144.69,21a6.66,6.66,0,0,1,2.55-4.61c.23,1.12.86,2.39,2.81,2a14.46,14.46,0,0,1-.69,1.83C148.73,21.5,147.75,22.89,146.43,22.89Z"/>
      <path class="cls-53" d="M175.59,25a1.49,1.49,0,1,1,1.49,1.49A1.48,1.48,0,0,1,175.59,25Zm2.79,0a1.31,1.31,0,1,0-1.3,1.31A1.3,1.3,0,0,0,178.38,25Zm-.56.83h-.24l-.48-.77h-.37v.77h-.2V24.19h.72a.84.84,0,0,1,.41.08.42.42,0,0,1,.18.36c0,.33-.23.45-.52.45Zm-.78-.92c.23,0,.6,0,.6-.3s-.23-.29-.43-.29h-.48v.59Z"/>
    </g>
  </g>
</svg>
