<svg id="Layer_1" data-name="Layer 1" xmlns="http://www.w3.org/2000/svg" viewBox="0 0 347.16 89.85"><defs><style>.cls-1{fill:#5a4099;}.cls-2{fill:#948671;}</style></defs><title>logo</title><path class="cls-1" d="M94.72,57.81c.33,14.9-31.2,23.9-49.61,32,0,0,37.14-8.38,50.34-20,8.39-7.4,7.49-26.67-14.23-23.66-.18,0-.74.77-.92.8,0,0,14.22,1.08,14.43,10.85"/><path class="cls-1" d="M23,29.9c-1.57-.43-3.47-1-5.48-1.44L17,25.84S58,45.55,102.11,1.63C103,.74,103.66,0,103.66,0s-.49,2.51-.44,2.42a20.6,20.6,0,0,0-4.15,4.41c-3.62,5-7.21,14.51-1.28,32.5l-1.91,1.36s-1.4-12.27-7.72-8.54c-3.44,2-5.36,13.92-5.36,13.92L80,47.1S89.61,20,73.58,24.38C59.3,28.28,52.52,40.08,47.89,89c0,.4-2.78.85-2.78.85s4.08-26.63-8-26C27.27,64.29,10,89.12,10,89.12H6.12S52.76,38,23,29.9"/><path class="cls-1" d="M46.83,27.52c3.61,0,7.43-3.39,8.54-7.57s-.93-7.57-4.55-7.57-7.43,3.39-8.53,7.57.93,7.57,4.54,7.57"/><path class="cls-1" d="M84.35,13.31a6.85,6.85,0,0,0,4.2-7.14,4.16,4.16,0,0,0-5.84-3.34A6.84,6.84,0,0,0,78.51,10a4.15,4.15,0,0,0,5.84,3.33"/><path class="cls-1" d="M2.21,85a2.14,2.14,0,1,1,0,4.28A2.14,2.14,0,1,1,2.2,85Zm0,.43a1.71,1.71,0,0,0,0,3.41A1.63,1.63,0,0,0,3.84,87.1,1.65,1.65,0,0,0,2.2,85.4Zm-.33,2.81h-.5V86.09A4,4,0,0,1,2.19,86a1.23,1.23,0,0,1,.74.17.59.59,0,0,1,.21.46.55.55,0,0,1-.44.51v0c.21.07.33.23.39.52a1.45,1.45,0,0,0,.16.52H2.71a1.81,1.81,0,0,1-.17-.51c0-.23-.17-.34-.44-.34H1.86Zm0-1.2h.23c.27,0,.5-.09.5-.31s-.14-.33-.46-.33a1.22,1.22,0,0,0-.27,0Z"/><path class="cls-2" d="M124.12,39.8h3.42c1.34,0,2.26.58,2.26,2s-1.08,1.88-2.32,1.88h-3.36ZM121,46.16h6.92c2.58,0,5-1.24,5-4.14a3.49,3.49,0,0,0-2.62-3.62,3.13,3.13,0,0,0,1.94-3c0-2.66-1.84-3.54-4.56-3.54H121Zm3.14-11.84h2.94c1.12,0,2.16.28,2.16,1.64,0,1.2-.82,1.7-1.92,1.7h-3.18Zm10.72,11.84h2.84V35.82h-2.84Zm2.84-14.28h-2.84v2.34h2.84Zm12.18,3.94h-2.7V37.2h0A3.22,3.22,0,0,0,144,35.54c-2.9,0-4.44,2.44-4.44,5.12,0,2.84,1.32,5.2,4.42,5.2a3.5,3.5,0,0,0,3.1-1.6h0v1.36c0,1.48-.7,2.56-2.28,2.56a1.92,1.92,0,0,1-2.12-1.42h-2.82c.14,2.36,2.52,3.32,4.56,3.32,4.76,0,5.36-2.88,5.36-4.58Zm-5.12,7.9c-1.74,0-2.3-1.62-2.3-3.1s.7-2.94,2.3-2.94c1.84,0,2.42,1.5,2.42,3.18,0,1.48-.8,2.86-2.42,2.86m16.4-3.92h3.42c1.34,0,2.26.58,2.26,2s-1.08,1.88-2.32,1.88h-3.36ZM158,46.16h6.92c2.58,0,5-1.24,5-4.14a3.49,3.49,0,0,0-2.62-3.62,3.13,3.13,0,0,0,1.94-3c0-2.66-1.84-3.54-4.56-3.54H158Zm3.14-11.84h2.94c1.12,0,2.16.28,2.16,1.64,0,1.2-.82,1.7-1.92,1.7h-3.18Zm10.64,11.84h2.84V41.5c0-1.82.72-3.32,2.8-3.32a5.17,5.17,0,0,1,1,.1V35.64a2.11,2.11,0,0,0-.62-.1,3.66,3.66,0,0,0-3.3,2.2h0V35.82h-2.7Zm7.1-5.16a5.35,5.35,0,1,0,10.7,0,5.35,5.35,0,1,0-10.7,0m2.84,0c0-1.66.58-3.32,2.5-3.32s2.52,1.66,2.52,3.32-.58,3.3-2.52,3.3-2.5-1.66-2.5-3.3M195,32.72h-2.84v3.1h-1.72v1.9h1.72v6.1c0,2.06,1.52,2.46,3.26,2.46a11,11,0,0,0,1.66-.1V44a4.34,4.34,0,0,1-.88.08c-1,0-1.2-.24-1.2-1.2V37.72h2.08v-1.9H195Zm3.44,13.44h2.84V40.74c0-2.1.66-3,2.2-3,1.32,0,1.82.84,1.82,2.54v5.84h2.84V39.8c0-2.56-.76-4.26-3.78-4.26a3.63,3.63,0,0,0-3,1.72h-.06V31.88h-2.84Zm21.66-4.48c.2-3.18-1.5-6.14-5-6.14A5.19,5.19,0,0,0,209.82,41c0,3.2,2,5.44,5.28,5.44A4.65,4.65,0,0,0,219.94,43h-2.5a2.34,2.34,0,0,1-2.24,1.34c-1.58,0-2.46-.82-2.54-2.62Zm-7.46-1.8a2.24,2.24,0,0,1,2.36-2.2c1.38,0,2,.76,2.26,2.2Zm9.14,6.28h2.84V41.5c0-1.82.72-3.32,2.8-3.32a5.19,5.19,0,0,1,1,.1V35.64a2.12,2.12,0,0,0-.62-.1,3.66,3.66,0,0,0-3.3,2.2h0V35.82h-2.7Zm7.28-3.36c.12,2.74,2.46,3.64,4.86,3.64s4.72-.88,4.72-3.6c0-1.92-1.62-2.52-3.28-2.9s-3.22-.52-3.22-1.54c0-.84.94-1,1.58-1,1,0,1.86.3,1.94,1.4h2.7c-.22-2.54-2.3-3.3-4.56-3.3s-4.5.68-4.5,3.32c0,1.82,1.64,2.4,3.28,2.76,2,.44,3.22.74,3.22,1.6s-1,1.32-1.86,1.32c-1.12,0-2.16-.5-2.18-1.74Zm20.24-3h3.42c1.34,0,2.26.58,2.26,2s-1.08,1.88-2.32,1.88h-3.36Zm-3.14,6.36h6.92c2.58,0,5-1.24,5-4.14a3.49,3.49,0,0,0-2.62-3.62,3.14,3.14,0,0,0,1.94-3c0-2.66-1.84-3.54-4.56-3.54h-6.72Zm3.14-11.84h2.94c1.12,0,2.16.28,2.16,1.64,0,1.2-.82,1.7-1.92,1.7h-3.18ZM260,46.16h2.84V35.82H260Zm2.84-14.28H260v2.34h2.84Zm12.18,3.94h-2.7V37.2h0a3.22,3.22,0,0,0-3.08-1.66c-2.9,0-4.44,2.44-4.44,5.12,0,2.84,1.32,5.2,4.42,5.2a3.5,3.5,0,0,0,3.1-1.6h0v1.36c0,1.48-.7,2.56-2.28,2.56A1.92,1.92,0,0,1,268,46.76h-2.82c.14,2.36,2.52,3.32,4.56,3.32,4.76,0,5.36-2.88,5.36-4.58Zm-5.12,7.9c-1.74,0-2.3-1.62-2.3-3.1s.7-2.94,2.3-2.94c1.84,0,2.42,1.5,2.42,3.18,0,1.48-.8,2.86-2.42,2.86m12.36-2.3c0,3.52,2.92,5.08,6.08,5.08,3.88,0,5.94-2,5.94-4.58,0-3.24-3.2-3.9-4.24-4.16-3.58-.92-4.26-1.06-4.26-2.16S287,34,288,34c1.5,0,2.72.44,2.82,2.16h3c0-3.3-2.74-4.6-5.72-4.6-2.58,0-5.34,1.4-5.34,4.32,0,2.68,2.14,3.5,4.26,4.06s4.24.82,4.24,2.36-1.68,1.78-2.78,1.78c-1.68,0-3.16-.74-3.16-2.64ZM296,46.16h2.84V35.82H296Zm2.84-14.28H296v2.34h2.84Zm1.74,10.92c.12,2.74,2.46,3.64,4.86,3.64s4.72-.88,4.72-3.6c0-1.92-1.62-2.52-3.28-2.9s-3.22-.52-3.22-1.54c0-.84.94-1,1.58-1,1,0,1.86.3,1.94,1.4h2.7c-.22-2.54-2.3-3.3-4.56-3.3s-4.5.68-4.5,3.32c0,1.82,1.64,2.4,3.28,2.76,2,.44,3.22.74,3.22,1.6s-1,1.32-1.86,1.32c-1.12,0-2.16-.5-2.18-1.74Zm14.84-10.08h-2.84v3.1h-1.72v1.9h1.72v6.1c0,2.06,1.52,2.46,3.26,2.46a11,11,0,0,0,1.66-.1V44a4.34,4.34,0,0,1-.88.08c-1,0-1.2-.24-1.2-1.2V37.72h2.08v-1.9h-2.08Zm13.24,9c.2-3.18-1.5-6.14-5-6.14A5.19,5.19,0,0,0,318.32,41c0,3.2,2,5.44,5.28,5.44A4.65,4.65,0,0,0,328.44,43h-2.5a2.34,2.34,0,0,1-2.24,1.34c-1.58,0-2.46-.82-2.54-2.62Zm-7.46-1.8a2.24,2.24,0,0,1,2.36-2.2c1.38,0,2,.76,2.26,2.2Zm9.14,6.28h2.84V41.5c0-1.82.72-3.32,2.8-3.32a5.18,5.18,0,0,1,1,.1V35.64a2.11,2.11,0,0,0-.62-.1,3.66,3.66,0,0,0-3.3,2.2h0V35.82h-2.7Zm7.28-3.36c.12,2.74,2.46,3.64,4.86,3.64s4.72-.88,4.72-3.6c0-1.92-1.62-2.52-3.28-2.9s-3.22-.52-3.22-1.54c0-.84.94-1,1.58-1,1,0,1.86.3,1.94,1.4h2.7c-.22-2.54-2.3-3.3-4.56-3.3s-4.5.68-4.5,3.32c0,1.82,1.64,2.4,3.28,2.76,2,.44,3.22.74,3.22,1.6s-1,1.32-1.86,1.32c-1.12,0-2.16-.5-2.18-1.74Z"/><path class="cls-2" d="M124.18,55.54a3.55,3.55,0,0,1,3.72,3.76,3.71,3.71,0,0,1-7.42,0A3.55,3.55,0,0,1,124.18,55.54Zm0,6c1.42,0,1.79-1.27,1.79-2.45a1.81,1.81,0,1,0-3.56,0C122.4,60.25,122.77,61.53,124.18,61.53Z"/><path class="cls-2" d="M130,57.05h-1.36V55.71H130v-1a2.17,2.17,0,0,1,2.26-2.41,6.48,6.48,0,0,1,1.35.15L133.47,54a1.43,1.43,0,0,0-.8-.25c-.62,0-.81.54-.81,1.09v.88h1.61v1.35h-1.61v5.74H130Z"/><path class="cls-2" d="M139.12,57.05h-1.36V55.71h1.36V54.29L141,53.7v2h1.64v1.35H141v3.3c0,.61.17,1.17.87,1.17a1.65,1.65,0,0,0,.84-.19l.05,1.46a4.84,4.84,0,0,1-1.36.16,2.08,2.08,0,0,1-2.24-2.3Z"/><path class="cls-2" d="M143.87,52.47h1.84v4.2h0A2.64,2.64,0,0,1,148,55.54c1.68,0,2.41,1.18,2.41,2.78v4.47h-1.84V59c0-.87,0-2-1.2-2-1.33,0-1.62,1.45-1.62,2.35v3.47h-1.84Z"/><path class="cls-2" d="M158,62.39a4.86,4.86,0,0,1-2.44.56,3.37,3.37,0,0,1-3.7-3.67c0-2.05,1.09-3.74,3.29-3.74,2.63,0,3.37,1.8,3.37,4.28h-4.9a1.85,1.85,0,0,0,2,1.79,4.78,4.78,0,0,0,2.35-.72Zm-1.24-3.84c-.05-.89-.47-1.66-1.5-1.66a1.61,1.61,0,0,0-1.64,1.66Z"/><path class="cls-2" d="M163.83,53.19h2.37l3.66,7.18h0V53.19h1.84v9.61h-2.35l-3.67-7.18h0v7.18h-1.84Z"/><path class="cls-2" d="M173.74,52.65h1.84v1.76h-1.84Zm0,3.06h1.84v7.09h-1.84Z"/><path class="cls-2" d="M177.84,56.08a6.35,6.35,0,0,1,2.46-.54c2.16,0,3.06.89,3.06,3v.91c0,.72,0,1.25,0,1.78s0,1,.08,1.58h-1.62a8.6,8.6,0,0,1-.08-1.06h0A2.53,2.53,0,0,1,179.54,63a2.26,2.26,0,0,1-2.48-2.11,2.08,2.08,0,0,1,1.21-2,5.62,5.62,0,0,1,2.38-.41h1c0-1.14-.51-1.53-1.6-1.53a3.71,3.71,0,0,0-2.19.77ZM180,61.61a1.57,1.57,0,0,0,1.29-.63,2.35,2.35,0,0,0,.39-1.46h-.8c-.83,0-2.05.14-2.05,1.22C178.83,61.35,179.34,61.61,180,61.61Z"/><path class="cls-2" d="M191.68,55.71v6.4c0,1.93-.77,3.74-3.74,3.74a6.24,6.24,0,0,1-2.45-.48l.15-1.57a5.32,5.32,0,0,0,2.06.62c2,0,2.13-1.53,2.13-2.75h0a2.53,2.53,0,0,1-2.2,1.13c-2.09,0-2.89-1.68-2.89-3.58,0-1.71.88-3.67,3-3.67a2.35,2.35,0,0,1,2.17,1.13h0v-1Zm-1.84,3.47c0-1.21-.47-2.2-1.54-2.2-1.25,0-1.65,1.16-1.65,2.24s.51,2.15,1.57,2.15S189.84,60.36,189.84,59.17Z"/><path class="cls-2" d="M193.9,56.08a6.35,6.35,0,0,1,2.46-.54c2.16,0,3.06.89,3.06,3v.91c0,.72,0,1.25,0,1.78s0,1,.08,1.58H197.9a8.56,8.56,0,0,1-.08-1.06h0A2.53,2.53,0,0,1,195.6,63a2.26,2.26,0,0,1-2.48-2.11,2.08,2.08,0,0,1,1.21-2,5.62,5.62,0,0,1,2.38-.41h1c0-1.14-.51-1.53-1.6-1.53a3.71,3.71,0,0,0-2.19.77Zm2.16,5.53a1.57,1.57,0,0,0,1.29-.63,2.35,2.35,0,0,0,.39-1.46h-.8c-.83,0-2.05.14-2.05,1.22C194.89,61.35,195.4,61.61,196.06,61.61Z"/><path class="cls-2" d="M201.27,55.71h1.64v1.61h0a2.17,2.17,0,0,1,1.94-1.78,2,2,0,0,1,.56.05v1.86a1.87,1.87,0,0,0-.83-.15c-1.5,0-1.5,1.87-1.5,2.89v2.6h-1.84Z"/><path class="cls-2" d="M206.9,56.08a6.35,6.35,0,0,1,2.46-.54c2.16,0,3.06.89,3.06,3v.91c0,.72,0,1.25,0,1.78s0,1,.08,1.58h-1.62a8.55,8.55,0,0,1-.08-1.06h0A2.53,2.53,0,0,1,208.61,63a2.26,2.26,0,0,1-2.48-2.11,2.08,2.08,0,0,1,1.21-2,5.62,5.62,0,0,1,2.38-.41h1c0-1.14-.51-1.53-1.6-1.53a3.71,3.71,0,0,0-2.19.77Zm2.16,5.53a1.57,1.57,0,0,0,1.29-.63,2.35,2.35,0,0,0,.39-1.46h-.8c-.83,0-2.05.14-2.05,1.22C207.89,61.35,208.4,61.61,209.06,61.61Z"/><path class="cls-2" d="M218.06,53.19h2.08c2.06,0,4.53-.07,4.53,2.6a2.2,2.2,0,0,1-2,2.23v0c.52,0,.83.56,1,1l1.54,3.76H223.1l-1.16-3c-.28-.72-.52-1-1.33-1H220v4h-1.93Zm1.93,4.1h.63c.95,0,2-.14,2-1.33s-1.07-1.25-2-1.25H220Z"/><path class="cls-2" d="M232.16,62.39a4.86,4.86,0,0,1-2.44.56,3.37,3.37,0,0,1-3.7-3.67c0-2.05,1.09-3.74,3.29-3.74,2.63,0,3.37,1.8,3.37,4.28h-4.9a1.85,1.85,0,0,0,2,1.79,4.78,4.78,0,0,0,2.35-.72Zm-1.24-3.84c-.06-.89-.47-1.66-1.5-1.66a1.61,1.61,0,0,0-1.64,1.66Z"/><path class="cls-2" d="M240.63,55.71v6.4c0,1.93-.77,3.74-3.74,3.74a6.24,6.24,0,0,1-2.45-.48l.15-1.57a5.32,5.32,0,0,0,2.06.62c2,0,2.13-1.53,2.13-2.75h0a2.53,2.53,0,0,1-2.2,1.13c-2.09,0-2.89-1.68-2.89-3.58,0-1.71.88-3.67,3-3.67a2.35,2.35,0,0,1,2.17,1.13h0v-1Zm-1.84,3.47c0-1.21-.47-2.2-1.54-2.2-1.25,0-1.65,1.16-1.65,2.24s.51,2.15,1.57,2.15S238.79,60.36,238.79,59.17Z"/><path class="cls-2" d="M242.57,52.65h1.84v1.76h-1.84Zm0,3.06h1.84v7.09h-1.84Z"/><path class="cls-2" d="M249.61,55.54a3.55,3.55,0,0,1,3.72,3.76,3.71,3.71,0,0,1-7.42,0A3.55,3.55,0,0,1,249.61,55.54Zm0,6c1.42,0,1.79-1.27,1.79-2.45a1.81,1.81,0,1,0-3.56,0C247.83,60.25,248.2,61.53,249.61,61.53Z"/><path class="cls-2" d="M254.77,55.71h1.75v1h0a2.65,2.65,0,0,1,2.33-1.13c1.68,0,2.41,1.18,2.41,2.78v4.47h-1.84V59c0-.87,0-2-1.2-2-1.33,0-1.62,1.45-1.62,2.35v3.47h-1.84Z"/></svg>